<?xml version="1.0" standalone="no"?>
<!DOCTYPE svg PUBLIC "-//W3C//DTD SVG 20010904//EN"
 "http://www.w3.org/TR/2001/REC-SVG-20010904/DTD/svg10.dtd">
<svg version="1.0" xmlns="http://www.w3.org/2000/svg"
 width="1600.000000pt" height="960.000000pt" viewBox="0 0 1600.000000 960.000000"
 preserveAspectRatio="xMidYMid meet">
<metadata>
Created by potrace 1.16, written by Peter Selinger 2001-2019
</metadata>
<g transform="translate(0.000000,960.000000) scale(0.100000,-0.100000)"
fill="#000000" stroke="none">
<path d="M0 4800 l0 -4800 8000 0 8000 0 0 4800 0 4800 -8000 0 -8000 0 0
-4800z m8340 4160 c420 -44 922 -183 1294 -359 199 -94 491 -283 782 -507 375
-288 524 -449 789 -849 359 -542 500 -882 641 -1545 62 -290 69 -693 19 -1060
-61 -446 -121 -706 -236 -1015 -139 -374 -395 -785 -768 -1235 -367 -443 -812
-762 -1376 -985 -320 -127 -754 -253 -1005 -292 -163 -25 -732 -25 -970 0
-400 43 -637 99 -975 232 -347 136 -626 294 -970 550 -486 360 -839 773 -1091
1275 -204 407 -341 784 -403 1112 -90 471 -88 1068 4 1474 92 409 321 989 522
1323 306 508 717 938 1213 1267 261 174 470 269 898 408 417 135 726 198 1077
220 100 6 443 -3 555 -14z"/>
<path d="M7625 8939 c-418 -40 -1128 -250 -1528 -451 -316 -159 -727 -480
-1002 -784 -408 -452 -668 -912 -889 -1574 -130 -392 -176 -678 -176 -1101 0
-542 72 -917 272 -1418 205 -514 404 -841 736 -1215 332 -374 921 -787 1420
-995 421 -176 760 -250 1286 -281 546 -31 864 10 1376 180 440 145 731 279
1000 459 379 253 582 451 922 902 506 669 704 1173 809 2059 18 144 22 237 22
420 -1 284 -10 370 -69 643 -125 573 -270 916 -611 1437 -268 409 -453 603
-873 916 -372 276 -607 415 -900 532 -333 132 -727 230 -1074 267 -158 16
-565 19 -721 4z m2779 -1429 c105 -88 173 -180 216 -290 11 -30 30 -74 40 -97
11 -24 20 -47 20 -53 0 -5 25 -74 56 -152 31 -79 67 -175 79 -214 63 -194 138
-360 248 -549 41 -69 47 -87 47 -136 0 -75 -31 -133 -92 -173 -26 -17 -47 -34
-47 -38 -1 -3 16 -9 38 -13 49 -8 94 -54 115 -118 32 -95 11 -163 -73 -244
-27 -26 -74 -70 -102 -98 -53 -50 -169 -200 -169 -218 0 -5 8 -6 17 -3 9 4 67
10 128 13 131 7 195 -7 313 -66 120 -60 158 -112 192 -256 40 -172 23 -271
-85 -487 -64 -129 -101 -184 -168 -251 -82 -83 -190 -177 -202 -177 -6 0 -30
-9 -53 -20 -66 -32 -137 -43 -226 -35 -92 8 -146 28 -200 75 -59 52 -80 103
-78 184 2 94 40 153 127 197 63 31 101 33 168 7 37 -14 58 6 156 152 80 120
114 184 104 194 -11 11 -147 6 -228 -9 -155 -28 -259 -17 -333 35 -24 17 -45
30 -46 28 -1 -2 -15 -55 -30 -118 -15 -63 -50 -180 -77 -260 -27 -80 -49 -150
-49 -157 0 -7 12 -25 26 -40 45 -48 58 -84 59 -154 0 -55 -4 -72 -27 -107 -34
-51 -121 -110 -243 -167 -51 -24 -96 -49 -100 -56 -4 -6 -20 -61 -36 -122 -18
-71 -38 -125 -56 -151 -39 -55 -101 -86 -173 -86 -51 0 -59 -3 -91 -36 -101
-106 -386 -311 -541 -390 -217 -110 -536 -198 -846 -234 -151 -18 -509 -8
-637 18 -214 42 -515 142 -682 226 -51 25 -97 46 -102 46 -5 0 -14 -14 -21
-30 -34 -82 -66 -110 -205 -176 l-133 -64 -32 -81 c-60 -148 -135 -214 -288
-253 l-62 -16 -157 51 c-221 71 -260 88 -315 138 -127 114 -134 255 -17 354
58 50 170 107 252 128 38 9 71 20 74 22 2 3 -1 40 -7 84 -27 188 -31 227 -33
390 -1 95 -5 173 -8 173 -3 0 -14 -9 -24 -20 -54 -60 -227 -44 -309 28 -58 52
-80 170 -51 269 19 65 37 86 148 179 51 43 91 85 90 94 -1 8 -16 57 -33 108
-29 84 -35 93 -54 88 -60 -17 -150 -27 -180 -22 -44 8 -117 66 -144 114 -12
21 -26 70 -32 108 -13 86 -22 444 -19 792 1 144 -2 262 -6 262 -4 0 -46 -20
-94 -45 -47 -24 -119 -59 -159 -76 -57 -25 -84 -45 -119 -85 -59 -70 -114 -96
-199 -96 -93 1 -150 31 -186 97 -37 68 -42 116 -24 213 17 91 24 108 54 135
30 27 207 127 372 210 240 120 299 156 332 201 16 23 34 52 39 65 16 41 79 90
138 107 52 15 60 15 108 0 29 -9 55 -21 58 -26 6 -9 169 55 259 103 32 17 95
64 138 104 44 40 85 73 91 73 6 0 27 11 46 25 20 13 62 31 95 39 53 14 68 25
165 118 241 232 422 352 741 491 150 65 234 91 360 112 52 9 127 22 165 30 50
10 161 15 370 17 289 2 306 1 455 -26 158 -28 341 -83 462 -138 l66 -30 64 21
c179 58 368 52 447 -15 89 -75 144 -254 110 -354 -12 -33 -12 -33 68 -109 44
-42 122 -123 174 -181 51 -58 95 -104 97 -103 2 1 16 28 32 60 27 55 28 66 33
238 9 306 47 600 90 685 35 71 80 91 193 88 l90 -3 78 -65z m-5545 -2314 c68
-35 107 -142 81 -220 -34 -104 -133 -149 -252 -116 -79 22 -133 136 -107 227
15 54 76 119 117 126 46 8 128 -1 161 -17z"/>
<path d="M10431 6399 c-16 -6 -21 -14 -16 -27 13 -34 26 -320 20 -442 -9 -200
-26 -263 -90 -330 l-33 -35 25 -110 c15 -60 28 -112 30 -115 2 -2 8 2 13 9 63
103 352 407 408 430 40 17 40 25 2 41 -69 28 -107 93 -230 385 -67 160 -89
205 -97 204 -4 0 -19 -5 -32 -10z"/>
<path d="M5652 5871 c-8 -5 -12 -21 -10 -42 l3 -34 18 39 c9 21 17 40 17 42 0
7 -14 4 -28 -5z"/>
<path d="M6330 3185 c0 -37 8 -42 41 -24 17 8 18 13 8 25 -7 8 -21 20 -31 25
-16 9 -18 6 -18 -26z"/>
</g>
</svg>
